******Up.in.the.air.2009.x264.AC3(5.1).Multisub.mkv-Zen_Bud******


Format                           : Matroska
File size                        : 1.40 GiB
Duration                         : 1h 44mn
Overall bit rate                 : 1 911 Kbps
Writing application              : HandBrake 0.9.4

Video

Format                           : AVC
Duration                         : 1h 44mn
Bit rate                         : 1 411 Kbps
Width                            : 720 pixels
Height                           : 552 pixels
Display aspect ratio             : 1.855
Stream size                      : 1.04 GiB (75%)
Writing library                  : x264 core 79


Audio

Format                           : AC-3
Duration                         : 1h 44mn
Bit rate                         : 448 Kbps
Channel(s)                       : 6 channels
Channel positions                : Front: L C R, Side: L R, LFE
Sampling rate                    : 48.0 KHz
Bit depth                        : 16 bits
Stream size                      : 336 MiB (23%)
Language                         : English

Text #1
Language                         : English

Text #2
Language                         : Dutch

Text #3
Language                         : Danish

Text #4
Language                         : Finnish

Text #5
Language                         : Norwegian

Text #6
Language                         : Swedish

Text #7
Language                         : English

Text #8
Language                         : English

Menu
00:00:00.000                     : Chapter 1
00:07:22.520                     : Chapter 2


